<svg width="30" height="30" viewBox="0 0 30 30" fill="none" xmlns="http://www.w3.org/2000/svg">
<rect width="30" height="30" rx="15" fill="url(#paint0_linear)"/>
<path fill-rule="evenodd" clip-rule="evenodd" d="M15.3181 11.5454C15.9741 11.5454 16.5 11.0136 16.5 10.3636C16.5 10.1391 16.4409 9.93226 16.3286 9.75499L15.3181 8L14.3077 9.75499C14.1954 9.93226 14.1363 10.1391 14.1363 10.3636C14.1363 11.0136 14.6681 11.5454 15.3181 11.5454ZM18.0363 17.4486L17.4041 16.8163L16.7659 17.4486C15.9977 18.2168 14.6504 18.2227 13.8763 17.4486L13.2441 16.8163L12.6 17.4486C12.2159 17.8327 11.7018 18.0454 11.1582 18.0454C10.7268 18.0454 10.3309 17.9095 10 17.685V20.4091C10 20.7341 10.2659 21 10.5909 21H20.0454C20.3704 21 20.6363 20.7341 20.6363 20.4091V17.685C20.3054 17.9095 19.9095 18.0454 19.4781 18.0454C18.9345 18.0454 18.4204 17.8327 18.0363 17.4486ZM15.9091 13.3181H18.8636C19.8445 13.3181 20.6363 14.11 20.6304 15.0909V16.0009C20.6304 16.639 20.1104 17.159 19.4722 17.159C19.165 17.159 18.8754 17.0409 18.6568 16.8222L17.3982 15.5636L16.1336 16.8222C15.6963 17.2595 14.9341 17.2595 14.4968 16.8222L13.2382 15.5636L11.9736 16.8222C11.7609 17.0409 11.4654 17.159 11.1582 17.159C10.52 17.159 10 16.639 10 16.0009V15.0909C10 14.11 10.7918 13.3181 11.7727 13.3181H14.7273V12.1363H15.9091V13.3181Z" fill="white"/>
<defs>
<linearGradient id="paint0_linear" x1="15" y1="0" x2="15" y2="30" gradientUnits="userSpaceOnUse">
<stop stop-color="#FF9900"/>
<stop offset="1" stop-color="#FFB800"/>
</linearGradient>
</defs>
</svg>
