<svg width="30" height="30" viewBox="0 0 30 30" fill="none" xmlns="http://www.w3.org/2000/svg">
<rect width="30" height="30" rx="15" fill="url(#paint0_linear)"/>
<mask id="path-2-inside-1" fill="white">
<path fill-rule="evenodd" clip-rule="evenodd" d="M18.7992 22.0421C21.3007 20.6897 23 18.0433 23 15C23 10.5817 19.4183 7 15 7C10.5817 7 7 10.5817 7 15C7 19.4183 10.5817 23 15 23C16.1138 23 17.1745 22.7724 18.138 22.3611V18.0498C17.9115 17.9355 17.6913 17.7079 17.4769 17.3884C16.8669 16.4794 16.8157 15.7355 17.4769 14.7438C18.138 13.7521 18.7992 13.752 19.4603 14.7438C20.1215 15.7356 20.1765 16.314 19.4603 17.3884C19.2342 17.7276 19.0139 17.9433 18.7992 18.0509V22.0421ZM11.0407 15.7755L11.7143 13.2616L13.7995 15.1385L13.1259 17.6524L11.0407 15.7755ZM14.7442 11.613L14.0416 14.2352L11.9563 12.3583L12.3294 10.966C12.4723 10.4325 13.0207 10.1159 13.5541 10.2589L14.0371 10.3883C14.5705 10.5312 14.8871 11.0796 14.7442 11.613ZM10.7986 16.6788L10.2588 18.6934C10.1159 19.2268 10.4325 19.7752 10.9659 19.9181L11.4489 20.0475C11.9824 20.1905 12.5307 19.8739 12.6736 19.3404L12.8839 18.5557L10.7986 16.6788Z"/>
</mask>
<path fill-rule="evenodd" clip-rule="evenodd" d="M18.7992 22.0421C21.3007 20.6897 23 18.0433 23 15C23 10.5817 19.4183 7 15 7C10.5817 7 7 10.5817 7 15C7 19.4183 10.5817 23 15 23C16.1138 23 17.1745 22.7724 18.138 22.3611V18.0498C17.9115 17.9355 17.6913 17.7079 17.4769 17.3884C16.8669 16.4794 16.8157 15.7355 17.4769 14.7438C18.138 13.7521 18.7992 13.752 19.4603 14.7438C20.1215 15.7356 20.1765 16.314 19.4603 17.3884C19.2342 17.7276 19.0139 17.9433 18.7992 18.0509V22.0421ZM11.0407 15.7755L11.7143 13.2616L13.7995 15.1385L13.1259 17.6524L11.0407 15.7755ZM14.7442 11.613L14.0416 14.2352L11.9563 12.3583L12.3294 10.966C12.4723 10.4325 13.0207 10.1159 13.5541 10.2589L14.0371 10.3883C14.5705 10.5312 14.8871 11.0796 14.7442 11.613ZM10.7986 16.6788L10.2588 18.6934C10.1159 19.2268 10.4325 19.7752 10.9659 19.9181L11.4489 20.0475C11.9824 20.1905 12.5307 19.8739 12.6736 19.3404L12.8839 18.5557L10.7986 16.6788Z" fill="white"/>
<path d="M18.7992 22.0421H17.7992V23.7195L19.2748 22.9217L18.7992 22.0421ZM18.138 22.3611L18.5306 23.2808L19.138 23.0215V22.3611H18.138ZM18.138 18.0498H19.138V17.434L18.5883 17.1568L18.138 18.0498ZM17.4769 17.3884L18.3073 16.8312L17.4769 17.3884ZM17.4769 14.7438L16.6448 14.1891H16.6448L17.4769 14.7438ZM19.4603 14.7438L18.6283 15.2985V15.2985L19.4603 14.7438ZM19.4603 17.3884L18.6283 16.8338V16.8338L19.4603 17.3884ZM18.7992 18.0509L18.351 17.157L17.7992 17.4337V18.0509H18.7992ZM11.7143 13.2616L12.3833 12.5183L11.1706 11.4268L10.7483 13.0028L11.7143 13.2616ZM11.0407 15.7755L10.0747 15.5166L9.91611 16.1087L10.3717 16.5187L11.0407 15.7755ZM13.7995 15.1385L14.7655 15.3974L14.9241 14.8053L14.4685 14.3953L13.7995 15.1385ZM13.1259 17.6524L12.4569 18.3957L13.6696 19.4872L14.0919 17.9112L13.1259 17.6524ZM14.0416 14.2352L13.3726 14.9785L14.5852 16.07L15.0075 14.494L14.0416 14.2352ZM14.7442 11.613L13.7783 11.3542L14.7442 11.613ZM11.9563 12.3583L10.9904 12.0994L10.8317 12.6915L11.2873 13.1015L11.9563 12.3583ZM12.3294 10.966L13.2953 11.2248V11.2248L12.3294 10.966ZM13.5541 10.2589L13.2953 11.2248H13.2953L13.5541 10.2589ZM14.0371 10.3883L13.7783 11.3542L14.0371 10.3883ZM10.2588 18.6934L11.2247 18.9522V18.9522L10.2588 18.6934ZM10.7986 16.6788L11.4676 15.9355L10.255 14.844L9.8327 16.42L10.7986 16.6788ZM10.9659 19.9181L11.2247 18.9522H11.2247L10.9659 19.9181ZM11.4489 20.0475L11.1901 21.0135H11.1901L11.4489 20.0475ZM12.6736 19.3404L13.6396 19.5992V19.5992L12.6736 19.3404ZM12.8839 18.5557L13.8498 18.8145L14.0085 18.2225L13.5529 17.8125L12.8839 18.5557ZM22 15C22 17.6615 20.515 19.9777 18.3236 21.1624L19.2748 22.9217C22.0864 21.4017 24 18.4251 24 15H22ZM15 8C18.866 8 22 11.134 22 15H24C24 10.0294 19.9706 6 15 6V8ZM8 15C8 11.134 11.134 8 15 8V6C10.0294 6 6 10.0294 6 15H8ZM15 22C11.134 22 8 18.866 8 15H6C6 19.9706 10.0294 24 15 24V22ZM17.7455 21.4414C16.9038 21.8006 15.9765 22 15 22V24C16.2512 24 17.4453 23.7441 18.5306 23.2808L17.7455 21.4414ZM17.138 18.0498V22.3611H19.138V18.0498H17.138ZM16.6465 17.9456C16.8993 18.3224 17.2366 18.7152 17.6878 18.9427L18.5883 17.1568C18.5948 17.1602 18.5685 17.1479 18.513 17.092C18.4584 17.0368 18.3889 16.9529 18.3073 16.8312L16.6465 17.9456ZM16.6448 14.1891C16.2456 14.788 15.9899 15.4195 16.0003 16.1122C16.0107 16.8008 16.2823 17.4029 16.6465 17.9456L18.3073 16.8312C18.0614 16.4649 18.0025 16.2405 18.0001 16.082C17.9978 15.9276 18.0471 15.6913 18.3089 15.2985L16.6448 14.1891ZM20.2924 14.1891C19.9216 13.6328 19.33 13 18.4686 13C17.6071 13 17.0157 13.6329 16.6448 14.1891L18.3089 15.2985C18.4367 15.1069 18.5287 15.019 18.5728 14.986C18.6089 14.9589 18.5689 15 18.4687 15C18.3684 15 18.3284 14.9589 18.3645 14.9859C18.4085 15.019 18.5005 15.1068 18.6283 15.2985L20.2924 14.1891ZM20.2924 17.9431C20.6905 17.3458 20.9888 16.7244 20.9767 16.0181C20.9648 15.3187 20.6502 14.7258 20.2924 14.1891L18.6283 15.2985C18.9317 15.7536 18.9752 15.9459 18.977 16.0522C18.9787 16.1516 18.9463 16.3566 18.6283 16.8338L20.2924 17.9431ZM19.2474 18.9449C19.6827 18.7266 20.0208 18.3505 20.2924 17.9431L18.6283 16.8338C18.5428 16.962 18.4722 17.0458 18.4197 17.0981C18.367 17.1507 18.3429 17.1611 18.351 17.157L19.2474 18.9449ZM19.7992 22.0421V18.0509H17.7992V22.0421H19.7992ZM10.7483 13.0028L10.0747 15.5166L12.0066 16.0343L12.6802 13.5204L10.7483 13.0028ZM14.4685 14.3953L12.3833 12.5183L11.0453 14.0048L13.1305 15.8818L14.4685 14.3953ZM14.0919 17.9112L14.7655 15.3974L12.8336 14.8797L12.16 17.3936L14.0919 17.9112ZM10.3717 16.5187L12.4569 18.3957L13.7949 16.9091L11.7097 15.0322L10.3717 16.5187ZM15.0075 14.494L15.7101 11.8718L13.7783 11.3542L13.0756 13.9764L15.0075 14.494ZM11.2873 13.1015L13.3726 14.9785L14.7106 13.492L12.6253 11.615L11.2873 13.1015ZM11.3634 10.7072L10.9904 12.0994L12.9222 12.6171L13.2953 11.2248L11.3634 10.7072ZM13.8129 9.29294C12.746 9.00705 11.6493 9.64022 11.3634 10.7072L13.2953 11.2248L13.2953 11.2248L13.8129 9.29294ZM14.2959 9.42235L13.8129 9.29294L13.2953 11.2248L13.7783 11.3542L14.2959 9.42235ZM15.7101 11.8718C15.996 10.8049 15.3628 9.70823 14.2959 9.42235L13.7783 11.3542L15.7101 11.8718ZM11.2247 18.9522L11.7646 16.9376L9.8327 16.42L9.29289 18.4346L11.2247 18.9522ZM11.2247 18.9522L11.2247 18.9522L9.29289 18.4346C9.00701 19.5015 9.64017 20.5982 10.7071 20.884L11.2247 18.9522ZM11.7077 19.0816L11.2247 18.9522L10.7071 20.884L11.1901 21.0135L11.7077 19.0816ZM11.7077 19.0816H11.7077L11.1901 21.0135C12.257 21.2993 13.3537 20.6662 13.6396 19.5992L11.7077 19.0816ZM11.918 18.2969L11.7077 19.0816L13.6396 19.5992L13.8498 18.8145L11.918 18.2969ZM10.1296 17.422L12.2149 19.299L13.5529 17.8125L11.4676 15.9355L10.1296 17.422Z" fill="white" mask="url(#path-2-inside-1)"/>
<defs>
<linearGradient id="paint0_linear" x1="15" y1="0" x2="15" y2="30" gradientUnits="userSpaceOnUse">
<stop stop-color="#24FF00"/>
<stop offset="1" stop-color="#1BC100"/>
</linearGradient>
</defs>
</svg>
