<svg width="30" height="30" viewBox="0 0 30 30" fill="none" xmlns="http://www.w3.org/2000/svg">
<rect width="30" height="30" rx="15" fill="url(#paint0_linear)"/>
<path d="M12.2122 14.7606C13.0922 16.49 14.51 17.9017 16.2394 18.7878L17.5839 17.4433C17.7489 17.2783 17.9933 17.2233 18.2072 17.2967C18.8917 17.5228 19.6311 17.645 20.3889 17.645C20.725 17.645 21 17.92 21 18.2561V20.3889C21 20.725 20.725 21 20.3889 21C14.6506 21 10 16.3494 10 10.6111C10 10.275 10.275 10 10.6111 10H12.75C13.0861 10 13.3611 10.275 13.3611 10.6111C13.3611 11.375 13.4833 12.1083 13.7094 12.7928C13.7767 13.0067 13.7278 13.245 13.5567 13.4161L12.2122 14.7606Z" fill="white"/>
<defs>
<linearGradient id="paint0_linear" x1="15" y1="0" x2="15" y2="30" gradientUnits="userSpaceOnUse">
<stop stop-color="#FFB800"/>
<stop offset="1" stop-color="#FF7A00"/>
</linearGradient>
</defs>
</svg>
