<svg width="30" height="30" viewBox="0 0 30 30" fill="none" xmlns="http://www.w3.org/2000/svg">
<rect width="30" height="30" rx="15" fill="url(#paint0_linear)"/>
<path fill-rule="evenodd" clip-rule="evenodd" d="M15 7C10.584 7 7 10.584 7 15C7 19.416 10.584 23 15 23C19.416 23 23 19.416 23 15C23 10.584 19.416 7 15 7ZM17.888 12.0719C18.744 12.0719 19.432 12.7599 19.432 13.6159C19.432 14.4719 18.744 15.1599 17.888 15.1599C17.032 15.1599 16.344 14.4719 16.344 13.6159C16.336 12.7599 17.032 12.0719 17.888 12.0719ZM14.976 12.696C14.976 11.656 14.128 10.808 13.088 10.808C12.04 10.808 11.2 11.648 11.2 12.696C11.2 13.736 12.048 14.584 13.088 14.584C14.128 14.584 14.976 13.736 14.976 12.696ZM13.088 18.112V21.112C11.168 20.512 9.64799 19.032 8.97599 17.144C9.81599 16.248 11.912 15.792 13.088 15.792C13.512 15.792 14.048 15.856 14.608 15.968C13.296 16.664 13.088 17.584 13.088 18.112ZM14.368 21.368C14.576 21.392 14.784 21.4 15 21.4C17.712 21.4 20.024 19.704 20.96 17.328C20.224 16.72 18.744 16.408 17.888 16.408C16.72 16.408 14.368 16.976 14.368 18.112V21.368Z" fill="white"/>
<defs>
<linearGradient id="paint0_linear" x1="15" y1="0" x2="15" y2="30" gradientUnits="userSpaceOnUse">
<stop stop-color="#00A3FF"/>
<stop offset="1" stop-color="#0084CE"/>
</linearGradient>
</defs>
</svg>
