<svg width="30" height="30" viewBox="0 0 30 30" fill="none" xmlns="http://www.w3.org/2000/svg">
<path fill-rule="evenodd" clip-rule="evenodd" d="M0 5C0 2.23853 2.23859 0 5 0H25C27.7614 0 30 2.23853 30 5V25C30 27.7615 27.7614 30 25 30H5C2.23859 30 0 27.7615 0 25V5ZM19 10C19 12.2092 17.2092 14 15 14C12.7908 14 11 12.2092 11 10C11 7.79077 12.7908 6 15 6C17.2092 6 19 7.79077 19 10ZM10.5 15C8.01471 15 6 17.0148 6 19.5C6 21.9852 8.01471 24 10.5 24H19.5C21.9853 24 24 21.9852 24 19.5C24 17.0148 21.9853 15 19.5 15H10.5Z" fill="#D2D2D2"/>
</svg>
